<svg width="70" height="22" viewBox="0 0 70 22" fill="none" xmlns="http://www.w3.org/2000/svg">
<g filter="url(#filter0_d_834_5)">
<path d="M30.976 6.896C31.968 6.896 32.672 7.116 33.088 7.556L32.848 7.82C32.464 7.444 31.856 7.256 31.024 7.256C29.776 7.256 29.152 7.752 29.152 8.744C29.152 9.128 29.304 9.436 29.608 9.668C29.912 9.892 30.28 10.064 30.712 10.184C31.152 10.304 31.588 10.432 32.02 10.568C32.46 10.696 32.832 10.908 33.136 11.204C33.44 11.492 33.592 11.872 33.592 12.344C33.592 12.896 33.364 13.336 32.908 13.664C32.452 13.992 31.792 14.156 30.928 14.156C30.504 14.156 30.084 14.1 29.668 13.988C29.26 13.876 28.956 13.712 28.756 13.496L28.996 13.232C29.404 13.608 30.032 13.796 30.88 13.796C31.656 13.796 32.24 13.652 32.632 13.364C33.032 13.076 33.232 12.74 33.232 12.356C33.232 11.956 33.08 11.632 32.776 11.384C32.472 11.136 32.1 10.952 31.66 10.832C31.228 10.704 30.792 10.576 30.352 10.448C29.92 10.312 29.552 10.104 29.248 9.824C28.944 9.544 28.792 9.176 28.792 8.72C28.792 8.104 28.996 7.648 29.404 7.352C29.82 7.048 30.344 6.896 30.976 6.896ZM35.7592 7.04H40.4032L37.5832 13.7V16.4H37.2232V13.7L34.4032 7.04H34.7872L37.4032 13.196L39.8632 7.4H35.7592V7.04ZM43.5734 10.244L45.7334 14H45.3134L43.3574 10.616L41.4014 14H40.9814L43.1414 10.244L41.2934 7.04H41.7134L43.3574 9.884L45.0014 7.04H45.4214L43.5734 10.244ZM49.0695 10.244L51.2295 14H50.8095L48.8535 10.616L46.8975 14H46.4775L48.6375 10.244L46.7895 7.04H47.2095L48.8535 9.884L50.4975 7.04H50.9175L49.0695 10.244ZM56.5206 7.04V10.52C56.5206 11.712 56.7086 12.552 57.0846 13.04C57.4686 13.52 57.9926 13.76 58.6566 13.76C59.3206 13.76 59.8406 13.52 60.2166 13.04C60.6006 12.552 60.7926 11.712 60.7926 10.52V7.04H61.1526V10.52C61.1526 12.92 60.3206 14.12 58.6566 14.12C56.9926 14.12 56.1606 12.92 56.1606 10.52V7.04H56.5206ZM66.2879 11.408L66.1079 11.096L66.7799 10.712C67.3319 10.408 67.6079 9.924 67.6079 9.26C67.6079 8.02 66.6639 7.4 64.7759 7.4H63.6719V16.4H63.3119V7.04H64.7759C65.8319 7.04 66.6279 7.236 67.1639 7.628C67.6999 8.012 67.9679 8.556 67.9679 9.26C67.9679 10.06 67.6319 10.648 66.9599 11.024L66.2879 11.408Z" fill="#79F3F9"/>
</g>
<g filter="url(#filter1_d_834_5)">
<path fill-rule="evenodd" clip-rule="evenodd" d="M15.6419 2.50509L15.6394 2.50761L15.6399 2.5916H15.7235L15.7261 2.58906L15.7286 2.5916L15.7311 2.59415L15.7286 2.59669L15.7319 7.32033L16.9023 7.31867L16.8995 3.3474L16.9241 3.34738V3.32269H16.9487L16.9883 3.28301V3.26427H17.0069L17.0128 3.25835L17.0127 3.23958L17.0316 3.23952L17.6768 2.5916H17.6822L17.7649 2.50848L19.8854 2.50256L19.8879 2.5L19.8905 2.50255L19.893 2.50509L19.8905 2.50763L19.8908 2.5916H19.9747L19.9772 2.58906L19.9798 2.5916L19.9823 2.59415L19.9798 2.59669L19.9856 7.40653L19.9882 7.40907L19.2575 8.14275L19.2576 8.16231H19.2381L19.2355 8.16485L19.233 8.16231V8.18704H19.2076L19.163 8.2318V8.2514H19.1435L19.141 8.25394L19.1384 8.2514L19.1385 8.27609L17.8581 8.27783L17.86 11.0605L19.8854 11.0549L19.8879 11.0523L19.8905 11.0548L19.893 11.0574L19.8905 11.0599L19.8908 11.1442L19.9747 11.1439L19.9772 11.1413L19.9798 11.1439L19.9823 11.1464L19.9798 11.149L19.9856 12.7469L19.9882 12.7494L19.2575 13.4826L19.2576 13.502L19.2381 13.5021L19.2355 13.5046L19.233 13.5021L19.2332 13.5268L19.0558 13.5279L19.0556 13.5032L19.0311 13.5033L19.0256 12.0137L17.8577 12.017L17.8605 12.7473L17.8627 12.7494L17.8605 12.7515L17.8686 14.7978L19.8854 14.7922L19.8879 14.7896L19.8905 14.7922L19.893 14.7947L19.8905 14.7973L19.8908 14.8812L19.9747 14.8807L19.9772 14.8781L19.9798 14.8807L19.9823 14.8832L19.9798 14.8857L19.9975 18.6269L20 18.6295L19.2693 19.3632L19.2694 19.3826L19.2499 19.3827L19.2474 19.3852L19.2448 19.3827L19.245 19.4074L19.2079 19.4076L19.163 19.4528V19.4723H19.1435L19.141 19.4749L19.1384 19.4723L19.1385 19.497L17.0129 19.5L17.0128 19.4753H16.9883V19.4082L16.9391 19.4086L16.9389 19.3839L16.9144 19.3841L16.8995 17.7811L16.9241 17.7809L16.924 17.7562L16.9489 17.756L17.6768 17.0257L17.8491 17.024L17.8517 17.0214L17.8542 17.0239L17.8567 17.0265L17.8542 17.029L17.8682 18.5413L19.0389 18.5396L19.0257 15.7511L17.0129 15.7567L17.0128 15.732H16.9883V15.6679L16.9391 15.6682L16.9389 15.6435L16.9144 15.6437L16.9059 13.5033H16.9055L16.9 12.0137L15.7293 12.017L15.7346 18.6275L15.7371 18.63L15.0064 19.3637V19.3833H14.987L14.9844 19.3858L14.9819 19.3833L14.9819 19.408H14.9564L14.9118 19.4528V19.4723H14.8923L14.8898 19.4749L14.8873 19.4723L14.8873 19.497L12.7558 19.5V19.497L10.6273 19.5L10.6273 19.4753H10.6027V19.4082L10.5506 19.4086L10.5505 19.3839L10.5259 19.3841L10.514 17.781L10.5386 17.7809L10.5384 17.7562L10.5634 17.756L11.2913 17.0251L11.4636 17.024L11.4661 17.0214L11.4687 17.0239L11.4712 17.0265L11.4687 17.029L11.4798 18.5413L12.6586 18.5396L12.6432 15.7569L10.6273 15.7597L10.6273 15.735H10.6027V15.6677H10.5505V15.643L10.5259 15.643L10.514 11.8997L10.5386 11.8997V11.875H10.5632L10.6027 11.8353V11.8166L10.6215 11.8165L10.6273 11.8107L10.6272 11.7918L10.6461 11.7918L11.2913 11.1445H11.2961L11.3794 11.0608L12.6452 11.0573L12.6426 3.46145L11.4702 3.46473L11.4805 9.11344L11.483 9.11599L10.7524 9.84966L10.7524 9.86914L10.7329 9.86918L10.7304 9.87177L10.7278 9.86922V9.89392H10.5505V9.86922L10.5259 9.86926L10.5142 3.46145L9.33778 3.46473L9.34308 11.1439L9.34561 11.1464L9.33724 11.1549L9.34308 12.7469L9.34561 12.7494L8.61494 13.4826L8.61501 13.502L8.59551 13.5021L8.59297 13.5046L8.59044 13.5021L8.59059 13.5268L8.41322 13.5279L8.41307 13.5032L8.38849 13.5033L8.383 12.0137L7.21303 12.017L7.21741 14.8009L9.24343 14.7981L9.24597 14.7955L9.2485 14.7981L9.25103 14.8006L9.2485 14.8032V14.8872L9.3321 14.8866L9.33467 14.8841L9.3372 14.8866L9.33974 14.8891L9.3372 14.8917L9.35494 18.6269L9.35748 18.6295L8.62677 19.3632L8.62684 19.3826L8.60737 19.3827L8.6048 19.3852L8.60227 19.3827L8.60246 19.4074L8.5654 19.4076L8.52044 19.4528V19.4723H8.50093L8.49839 19.4749L8.49586 19.4723L8.4959 19.497L6.3703 19.5V19.4753H6.34573V19.4082L6.28767 19.4086L6.28751 19.3839L6.26294 19.384L6.25702 17.781L6.2816 17.7809L6.28145 17.7562L6.30637 17.756L7.03428 17.0251L7.20654 17.0245L7.20911 17.0219L7.21165 17.0245L7.21418 17.027L7.21169 17.0295L7.21722 18.5413L8.39633 18.5396L8.38312 15.7569L6.3703 15.7597V15.735H6.34573V15.6677H6.28751V15.643L6.26294 15.643L6.25702 11.8997L6.2816 11.8997H6.26294L6.2571 3.46146L5.08639 3.46473L5.08904 11.1439L5.09157 11.1464L5.08862 11.1494L5.08904 11.1498L5.09157 11.1524L5.08903 11.1549L5.08609 13.6998L5.08862 13.7023L4.35802 14.4359L4.35799 14.4556H4.33848L4.33595 14.4581L4.33342 14.4555L4.33341 14.4803H4.15604V14.4555H4.13146L4.1343 12.0137L2.9553 12.017L2.96046 18.5413L4.13347 18.5396L4.13146 16.7562H4.15604V16.7314H4.18064L4.90871 16.0004H5.08102L5.08355 15.9978L5.08609 16.0004L5.08862 16.0029L5.08609 16.0055L5.08904 18.6275L5.09157 18.63L4.36093 19.3637L4.36095 19.3832L4.34146 19.3833L4.33891 19.3858L4.33743 19.3844L4.33638 19.3854L4.33637 19.408H4.31389L4.26931 19.4528V19.4723H4.2498L4.24726 19.4749L4.24473 19.4723L4.24476 19.497L2.11921 19.5L2.11917 19.4753H2.0946V19.408H2.03049V19.3833L2.00591 19.3833L2 11.8997L2.00591 11.8997L2 3.3474L2.02458 3.34738V3.32269H2.04917L2.77724 2.5916H2.94955L2.95208 2.58906L2.95462 2.5916L2.95715 2.59415L2.95462 2.59669L2.95788 7.32033L4.13284 7.31867L4.13146 3.34739L4.15604 3.34738V3.32269H4.18063L4.22015 3.283V3.26427H4.23881L4.24471 3.25834L4.24466 3.23958L4.26345 3.23952L4.90871 2.5916H4.91409L4.99681 2.50848L7.11726 2.50256L7.1198 2.5L7.12233 2.50255L7.12486 2.50509L7.12237 2.50762V2.50848L9.24285 2.50256L9.24539 2.5L9.24792 2.50255L9.25046 2.50509L9.24796 2.50762V2.50848L11.3743 2.50256L11.3768 2.5L11.3794 2.50255L11.3819 2.50509L11.3794 2.50762V2.50848L13.5028 2.50256L13.5053 2.5L13.5079 2.50255L13.5104 2.50509L13.5079 2.50762V2.51442L15.6343 2.50258L15.6368 2.5L15.6394 2.50255L15.6419 2.50509ZM14.7741 12.0137L14.7793 18.5396L13.6174 18.5413L13.5972 14.8917L13.5997 14.8891L13.5972 14.8866L13.5947 14.8841L13.5921 14.8866L13.5085 14.8872V14.8032L13.511 14.8006L13.5085 14.7981L13.5059 14.7955L13.5034 14.7981L11.4802 14.8009L11.4714 12.017L12.6428 12.0137L12.6455 13.5027L12.6701 13.5027V13.5274H12.8475V13.5027L12.85 13.5052L12.8525 13.5026H12.872L12.872 13.4831L13.6026 12.7494L13.6001 12.7469L13.5988 12.017L14.7741 12.0137ZM16.903 8.27625L16.9049 11.0572L15.7345 11.0605L15.7326 8.27783L16.903 8.27625ZM8.38266 3.46146L8.38792 11.0572L7.21748 11.0605L7.21226 3.46473L8.38266 3.46146ZM2.96047 11.0605L4.13413 11.0572L4.13317 8.27625L2.95854 8.27787L2.96047 11.0605ZM13.6001 11.0605L14.7793 11.0572L14.7774 8.27625L13.5991 8.27787L13.6001 11.0605ZM14.7741 3.46177L14.7768 7.31867L13.5988 7.32033L13.5975 3.46833L14.7741 3.46177ZM19.0253 3.46146L17.8548 3.46473L17.8575 7.32033L19.03 7.31867L19.0253 3.46146Z" fill="#79F3F9"/>
</g>
<defs>
<filter id="filter0_d_834_5" x="26.7561" y="4.896" width="43.2117" height="13.5039" filterUnits="userSpaceOnUse" color-interpolation-filters="sRGB">
<feFlood flood-opacity="0" result="BackgroundImageFix"/>
<feColorMatrix in="SourceAlpha" type="matrix" values="0 0 0 0 0 0 0 0 0 0 0 0 0 0 0 0 0 0 127 0" result="hardAlpha"/>
<feOffset/>
<feGaussianBlur stdDeviation="1"/>
<feComposite in2="hardAlpha" operator="out"/>
<feColorMatrix type="matrix" values="0 0 0 0 0.47451 0 0 0 0 0.952941 0 0 0 0 0.976471 0 0 0 0.7 0"/>
<feBlend mode="normal" in2="BackgroundImageFix" result="effect1_dropShadow_834_5"/>
<feBlend mode="normal" in="SourceGraphic" in2="effect1_dropShadow_834_5" result="shape"/>
</filter>
<filter id="filter1_d_834_5" x="0" y="0.5" width="22" height="21" filterUnits="userSpaceOnUse" color-interpolation-filters="sRGB">
<feFlood flood-opacity="0" result="BackgroundImageFix"/>
<feColorMatrix in="SourceAlpha" type="matrix" values="0 0 0 0 0 0 0 0 0 0 0 0 0 0 0 0 0 0 127 0" result="hardAlpha"/>
<feOffset/>
<feGaussianBlur stdDeviation="1"/>
<feComposite in2="hardAlpha" operator="out"/>
<feColorMatrix type="matrix" values="0 0 0 0 0.47451 0 0 0 0 0.952941 0 0 0 0 0.976471 0 0 0 0.6 0"/>
<feBlend mode="normal" in2="BackgroundImageFix" result="effect1_dropShadow_834_5"/>
<feBlend mode="normal" in="SourceGraphic" in2="effect1_dropShadow_834_5" result="shape"/>
</filter>
</defs>
</svg>
